<?xml version="1.0" encoding="UTF-8"?>
<svg id="Layer_1" data-name="Layer 1" xmlns="http://www.w3.org/2000/svg" viewBox="0 0 62.26 64.76">
  <defs>
    <style>
      .cls-1 {
        fill: #ff4b00;
        stroke: #fff;
        stroke-miterlimit: 10;
        stroke-width: 2px;
      }
    </style>
  </defs>
  <circle class="cls-1" cx="23.35" cy="8.78" r="7.78"/>
  <circle class="cls-1" cx="38.91" cy="8.78" r="7.78"/>
  <circle class="cls-1" cx="23.35" cy="40.42" r="7.78"/>
  <circle class="cls-1" cx="38.91" cy="40.42" r="7.78"/>
  <circle class="cls-1" cx="23.35" cy="55.98" r="7.78"/>
  <circle class="cls-1" cx="38.91" cy="55.98" r="7.78"/>
  <path d="M50.2,1.38c-1.84,1.13-2.94,3.16-2.94,5.32v2.03c0,4.64-3.76,8.4-8.4,8.4h-15.46c-4.64,0-8.4-3.76-8.4-8.4v-2.03c0-2.16-1.1-4.19-2.94-5.32C6.14-2.25,0,1.92,0,7.52v49.56c0,2.16,1.1,4.19,2.94,5.32,5.92,3.63,12.06-.54,12.06-6.14v-15.73c0-4.64,3.76-8.4,8.4-8.4h15.45c4.64,0,8.4,3.76,8.4,8.4v16.54c0,2.16,1.1,4.19,2.94,5.32,5.92,3.63,12.06-.54,12.06-6.14V7.52c0-5.6-6.14-9.77-12.06-6.14Z"/>
</svg>