<?xml version="1.0" encoding="UTF-8"?>
<svg id="Layer_1" data-name="Layer 1" xmlns="http://www.w3.org/2000/svg" viewBox="0 0 511.03 511.26">
  <g id="i9c3L9.tif">
    <g>
      <path d="M260.52,0c23.48,7.74,24.95,35.73,2.99,46.41v73.36h18.96v-20.46c3.13-6.12,15.54-6.11,18.98-8.97,1.97-1.64.77-9.47.82-12.33-20.96-7.14-21.21-37.53.17-44.56,28.9-9.51,44.85,33.98,15.12,44.56-1.23,5.85,1.75,17.06-1.68,21.78-2.81,3.87-13.7,5.18-17.99,7.96l-.46,12.02h50.4c13.53,0,30.89,13.02,37.23,24.65,3.95,7.25,12.6,33.83-1.34,34.32-8.88.31-6.71-8.32-7.57-13.43-2.9-17.12-12.84-28-30.44-30.44-57.94,3.19-121.24-4.67-178.56-.16-17.72,1.4-30.79,13.63-32.38,31.49-3.98,44.48,4.03,95.36.03,139.76-.54,6.04-4.53,10.41-10.77,7.68-5.54-2.42-4.12-11.22-4.24-16.22l-11.35.14c-3.22,1.1-4.34,15.96-9.23,18.71-4.78,2.69-15.01.33-20.67,1.07-7.7,21.2-37.92,21.75-45.07.03-9.54-29,33.86-44.46,44.56-15.12l11.18.03c2.72-.92,4.79-17.81,10.12-19.83h20.46v-18.96H46.44c-11.8,27.37-52.37,15.53-45.71-13.77,5.21-22.89,38.8-23.82,45.21-1.2h73.86v-19.96h-20.46c-6.12-3.13-6.11-15.54-8.97-18.98-1.64-1.97-9.47-.77-12.33-.82-7.14,20.96-37.53,21.21-44.56-.17-9.51-28.9,33.98-44.85,44.56-15.12,5.84,1.23,17.06-1.75,21.78,1.68,4.06,2.95,4.79,13.63,7.97,17.98l12.02.46v-50.4c0-19.4,23.94-43.42,43.42-43.42h50.4l-.48-11.99c-4.35-3.59-14.81-3.64-17.96-7.99-3.43-4.72-.45-15.93-1.68-21.78-29.73-10.58-13.78-54.07,15.12-44.56,21.38,7.04,21.13,37.42.17,44.56.05,2.86-1.15,10.7.82,12.33,3.43,2.85,15.85,2.85,18.98,8.97v20.46h18.96V46.41c-21.95-10.68-20.49-38.67,2.99-46.41h9.98ZM264.19,23.53c0-4.78-3.87-8.65-8.65-8.65s-8.65,3.87-8.65,8.65,3.87,8.65,8.65,8.65,8.65-3.87,8.65-8.65ZM209.75,55.89c0-4.76-3.86-8.62-8.62-8.62s-8.62,3.86-8.62,8.62,3.86,8.62,8.62,8.62,8.62-3.86,8.62-8.62ZM318.54,55.89c0-4.76-3.86-8.62-8.62-8.62s-8.62,3.86-8.62,8.62,3.86,8.62,8.62,8.62,8.62-3.86,8.62-8.62ZM64.54,201.11c0-4.76-3.86-8.61-8.61-8.61s-8.61,3.86-8.61,8.61,3.86,8.61,8.61,8.61,8.61-3.86,8.61-8.61ZM32.21,255.5c0-4.78-3.87-8.66-8.66-8.66s-8.66,3.87-8.66,8.66,3.87,8.66,8.66,8.66,8.66-3.87,8.66-8.66ZM64.54,309.9c0-4.76-3.86-8.61-8.61-8.61s-8.61,3.86-8.61,8.61,3.86,8.61,8.61,8.61,8.61-3.86,8.61-8.61Z"/>
      <path d="M511.03,260.49c-7.74,23.48-35.73,24.95-46.41,2.99h-73.36v18.96h20.46c6.12,3.13,6.11,15.54,8.97,18.98,1.64,1.97,9.47.77,12.33.82,7.14-20.96,37.53-21.21,44.56.17,9.51,28.9-33.98,44.85-44.56,15.12-5.84-1.23-17.06,1.75-21.78-1.68-4.06-2.95-4.79-13.63-7.97-17.98l-12.02-.46v50.4c0,19.38-23.97,43.42-43.42,43.42h-50.4l.46,12.02c4.29,2.79,15.18,4.1,17.99,7.96,3.43,4.72.45,15.93,1.68,21.78,29.73,10.58,13.78,54.07-15.12,44.56-21.38-7.04-21.13-37.42-.17-44.56-.05-2.86,1.15-10.7-.82-12.33-3.43-2.85-15.85-2.85-18.98-8.97v-20.46h-18.96v73.36c29.81,12.7,12.15,57.04-17.49,44.43-20.15-8.57-17.62-36.27,1.52-44.43v-73.36h-18.96v20.46c-3.13,6.12-15.54,6.11-18.98,8.97-1.97,1.64-.77,9.47-.82,12.33,20.96,7.14,21.21,37.53-.17,44.56-28.9,9.51-44.85-33.98-15.12-44.56,1.23-5.84-1.75-17.06,1.68-21.78,3.15-4.35,13.61-4.4,17.96-7.99l.48-11.99h-50.4c-13.42,0-30.95-13.13-37.23-24.65-3.73-6.85-12.46-31.84,1.34-32.32,9.43-.33,7.15,12.72,9.4,19.59,4.04,12.33,15.78,20.94,28.62,22.28,57.94-3.19,121.24,4.67,178.56.16,17.94-1.41,30.54-13.6,32.38-31.49l.53-142.19c9.56-10.06,16.37.26,14.45,10.97l11.35-.14c3.22-1.1,4.34-15.96,9.23-18.71s15.01-.33,20.67-1.07c7.7-21.2,37.92-21.75,45.07-.03,9.54,29-33.86,44.46-44.56,15.12l-11.18-.03c-2.72.92-4.79,17.81-10.12,19.83h-20.46v19.96h73.86c8.02-23.39,38.86-21.38,45.91,2v9.98ZM463.76,201.11c0-4.76-3.86-8.61-8.61-8.61s-8.61,3.86-8.61,8.61,3.86,8.61,8.61,8.61,8.61-3.86,8.61-8.61ZM496.16,255.5c0-4.78-3.87-8.65-8.65-8.65s-8.65,3.87-8.65,8.65,3.87,8.65,8.65,8.65,8.65-3.87,8.65-8.65ZM463.76,309.9c0-4.76-3.86-8.61-8.61-8.61s-8.61,3.86-8.61,8.61,3.86,8.61,8.61,8.61,8.61-3.86,8.61-8.61ZM209.75,455.11c0-4.76-3.86-8.62-8.62-8.62s-8.62,3.86-8.62,8.62,3.86,8.62,8.62,8.62,8.62-3.86,8.62-8.62ZM318.54,455.11c0-4.76-3.86-8.62-8.62-8.62s-8.62,3.86-8.62,8.62,3.86,8.62,8.62,8.62,8.62-3.86,8.62-8.62ZM264.19,487.47c0-4.78-3.88-8.66-8.66-8.66s-8.66,3.88-8.66,8.66,3.88,8.66,8.66,8.66,8.66-3.88,8.66-8.66Z"/>
      <g>
        <path d="M290.46,316.88c.2-.94,2.55-3.79,3.47-4.51,7.26-5.7,12.12,1.59,14.78.91l9.53-9.52c-1.35-4.22-4.88-6.94-6.32-11.34-4.68-14.26,4-21.29,6.99-33.91,12.24-51.81-36.29-95.94-86.61-77.63-6.75,2.45-16.43,11.74-22.66,7.23-10.23-7.4,5.24-15.79,11.29-18.61,62.12-28.92,128.42,26.46,112.58,92.62-1.44,6.03-7.86,17.78-8.05,21.91-.33,7.01,10.03,11.14,7.7,22.65-1.56,7.67-18.47,24.42-27.72,21.68.34,10.89-4.99,19.99-16.42,21.01-16.91,1.5-50.04,1.49-66.95,0-11.45-1.01-16.76-10.14-16.42-21.01-9.55,2.71-26.69-14.44-27.9-22.52-1.65-11,8.14-15.22,7.87-21.81-.15-3.57-5.54-13.34-6.94-18.03-5.3-17.68-4.7-38.9,3.15-55.76,2.58-5.54,6.42-13.44,13.81-8.1,6.93,5.01-1.81,16.36-3.48,23.42-5.4,22.85-.03,29.48,6.54,49.37,4.16,12.61.61,18.31-5.87,28.84l9.53,9.52c2.67.68,7.52-6.61,14.78-.91.82.64,3.47,3.88,3.47,4.51v15.97c.88,1.42,1.99,1.38,3.44,1.55,12.83,1.51,50.15,1.51,62.98,0,1.45-.17,2.57-.12,3.44-1.55.67-4.67-.93-11.68,0-15.97Z"/>
        <path d="M271.84,278.12c-11.11-11.08-.26-23.06,11.82-25.93,13.91-3.3,14.14,5.08,12.79,16.78s-16.19,17.54-24.61,9.14Z"/>
        <path d="M239.23,278.12c-8.58,8.56-23.27,2.58-24.61-9.14s-1.11-20.08,12.79-16.78c12.08,2.86,22.93,14.85,11.82,25.93Z"/>
        <path d="M253.26,288.63c11.07-2.45,20.84,18.95,14.2,25.2-4.02,3.78-19.84,3.77-23.85,0-6.16-5.79,2.28-23.57,9.65-25.2Z"/>
      </g>
    </g>
  </g>
</svg>