<?xml version="1.0" encoding="UTF-8"?>
<svg id="Layer_1" data-name="Layer 1" xmlns="http://www.w3.org/2000/svg" viewBox="0 0 394.44 62.75">
  <defs>
    <style>
      .cls-1 {
        fill: #fff;
      }
    </style>
  </defs>
  <path class="cls-1" d="M61.25,7v48.75c0,2.53-1.37,4.87-3.58,6.11-2.35,1.31-5.16,1.17-7.71-.4-1.67-1.02-2.71-2.9-2.71-4.9v-16.54c0-4.91-3.99-8.9-8.9-8.9h-15.45c-4.91,0-8.9,3.99-8.9,8.9v15.73c0,2.53-1.38,4.87-3.59,6.11-2.34,1.31-5.15,1.17-7.71-.4-1.67-1.02-2.7-2.9-2.7-4.9V7C0,4.47,1.37,2.13,3.58.89c2.35-1.31,5.16-1.16,7.71.4,1.67,1.03,2.71,2.9,2.71,4.9v2.03c0,4.91,3.99,8.9,8.9,8.9h15.45c4.91,0,8.9-3.99,8.9-8.9v-2.03c0-1,.26-1.97.73-2.81.47-.85,1.14-1.58,1.98-2.09,2.55-1.56,5.36-1.71,7.71-.4,2.21,1.24,3.58,3.58,3.58,6.11Z"/>
  <path class="cls-1" d="M120.1,15.79h-.33c-2.31,0-4.56-.94-6.18-2.57-1.54-1.55-2.38-3.58-2.36-5.72.01-1.91-.79-3.83-2.21-5.26-1.38-1.39-3.14-2.15-4.96-2.15h-13.86c-1.8,0-3.55.76-4.93,2.14-1.42,1.42-2.23,3.32-2.23,5.21,0,2.23-.86,4.32-2.44,5.9-1.58,1.58-3.67,2.45-5.9,2.45h-.53c-3.86,0-7,3.14-7,7v32.55c0,3.92,3.04,7.2,6.79,7.32,1.9.06,3.72-.65,5.09-1.98s2.12-3.11,2.12-5.02v-13.99c0-4.91,3.99-8.9,8.9-8.9h14.13c4.9,0,8.9,3.99,8.9,8.9v13.67c0,3.92,3.04,7.2,6.78,7.32,1.9.06,3.72-.65,5.09-1.98,1.37-1.33,2.13-3.11,2.13-5.02V22.79c0-3.86-3.14-7-7-7ZM104.23,29.55h-14.19c-4.41,0-8-3.59-8-8s3.59-8,8-8h14.19c4.41,0,8,3.59,8,8s-3.59,8-8,8Z"/>
  <path class="cls-1" d="M193.88,55.63c0,3.86-3.14,7-7,7h-32.66c-3.86,0-7-3.14-7-7s-3.23-7.2-7.2-7.2-7-3.14-7-7v-20.1c0-3.86,3.14-7,7-7s7.2-3.24,7.2-7.21S150.36.12,154.22.12h32.66c3.86,0,7,3.14,7,7s-3.14,7-7,7h-31.87c-4.41,0-8,3.59-8,8v18.51c.01,4.41,3.6,8,8.01,8h31.86c3.86,0,7,3.14,7,7Z"/>
  <path class="cls-1" d="M392.31,16.27c-1.3-1.28-3-1.96-4.76-1.95-1.97.04-3.81-.72-5.2-2.11s-2.14-3.24-2.11-5.21c.02-1.76-.67-3.45-1.95-4.75-1.34-1.35-3.18-2.13-5.06-2.13h-32.64c-.12-.01-.24-.01-.36-.01-1.75,0-3.36.64-4.6,1.81-1.32,1.26-2.05,2.98-2.05,4.84v49.23c0,1.86.73,3.58,2.05,4.84,1.32,1.26,3.08,1.9,4.94,1.8h32.66c1.88,0,3.72-.77,5.06-2.13,1.28-1.3,1.97-2.99,1.95-4.75-.03-1.97.71-3.82,2.11-5.21,1.39-1.39,3.24-2.14,5.2-2.11,1.78.02,3.46-.67,4.76-1.95,1.35-1.34,2.13-3.18,2.13-5.05v-20.1c0-1.88-.78-3.72-2.13-5.06ZM380.44,40.63c0,4.41-3.59,8-8,8h-15.96c-4.91,0-8.9-3.99-8.9-8.9v-16.71c0-4.91,4-8.9,8.9-8.9h15.96c4.42,0,8,3.59,8,8v18.51Z"/>
  <path class="cls-1" d="M258.64,55.53c0,3.86-3.14,7-7,7-1.89,0-3.66-.74-4.99-2.09-1.32-1.33-2.03-3.07-2.01-4.9.03-2.44-1.07-4.74-3.03-6.31-1.29-1.03-2.96-1.62-4.82-1.71h-.14c-.11,0-.22-.01-.33-.02l-.37-.02c-.21-.02-.42-.05-.69-.1-3.25-.67-5.6-3.56-5.59-6.88v-1.49c.01-1.89-.52-3.6-1.54-4.96-1.53-2.05-3.86-3.23-6.39-3.23-2.75,0-5.28,1.41-6.78,3.78-.77,1.21-1.17,2.72-1.16,4.36v16.68c0,2-.86,3.91-2.36,5.24-1.53,1.35-3.49,1.95-5.52,1.7-3.49-.42-6.12-3.53-6.12-7.23V6.76c0-1.86.72-3.58,2.04-4.83,1.24-1.18,2.85-1.82,4.62-1.82.12,0,.24.01.36.01.11,0,.21.01.32.02l.38.02c.21.02.41.05.69.11,3.25.66,5.6,3.55,5.59,6.87v1.71c-.01,2.54,1.16,4.87,3.21,6.41,1.35,1.02,3.06,1.56,4.95,1.56h1.22c3.19.04,5.7-1.39,7.2-4.03.72-1.26,1.02-2.49,1.02-4.11v-1.54c-.02-3.32,2.33-6.21,5.67-6.89.2-.04.4-.07.6-.09l.38-.02c.11-.01.21-.02.35-.02h13.55c3.67,0,6.78,2.62,7.22,6.08.25,2.02-.33,3.97-1.64,5.49-1.29,1.5-3.17,2.38-5.15,2.42h-12.87c-.06,0-.12.01-.18.01h-.01l-2.84.09c-5.32,0-9.64,4.32-9.64,9.65,0,4.24,2.84,8.04,6.9,9.24.25.08.51.15.81.21.27.06.55.1.85.13l.13.02c.37.03.75.06,1.16.06,3.86,0,7,3.14,7,7,0,4.42,3.56,8.01,7.95,8.01,3.86,0,7,3.14,7,7Z"/>
  <path class="cls-1" d="M327.66,55.41c.06,1.91-.64,3.72-1.97,5.09s-3.12,2.12-5.03,2.12h-48.51c-3.86.01-7-3.13-7-6.99V7.12c0-3.86,3.14-7,7-7h48.51c1.91,0,3.7.75,5.03,2.12s2.03,3.18,1.97,5.09c-.11,3.74-3.39,6.79-7.31,6.79h-2.13c-5.36,0-8.55,3.09-8.55,8.27v1.5c0,3.86-3.14,7-7,7h-14.65c-4.89,0-8.87,3.97-8.87,8.87s3.98,8.86,8.87,8.86h32.33c3.92,0,7.2,3.05,7.31,6.79Z"/>
</svg>